<svg xmlns="http://www.w3.org/2000/svg" viewBox="0 0 465.33 175.26"><defs><style>.cls-1{fill:#fff9f5;}.cls-2{fill:#d3b88d;}</style></defs><g id="Camada_2" data-name="Camada 2"><g id="Camada_1-2" data-name="Camada 1"><path class="cls-1" d="M217.76,0c4.81,0,10.23,1.33,15,1.33A16.71,16.71,0,0,0,239.65,0h.41l4.09,29.66h-1C234.85,10.94,225.84,1,217.76,1c-9.51,0-13,9.51-13,36.31s3.38,36.31,12.79,36.31c7.26,0,18.82-10.94,27.1-31.4h1l-4.09,32.12h-.41a21.54,21.54,0,0,0-7.67-1.23c-5.32,0-10.94,1.53-16,1.53-21.58,0-37.33-15.75-37.33-37.33S196.07,0,217.76,0Z"/><path class="cls-2" d="M230.75,37.33c0,20.15,7.06,36,23,36,10,0,17.69-5,17.69-15.65V54.41c0-9.72-2.35-14.12-11.46-15.24v-.72h23.22v.61c-4.09.72-5.22,3.27-5.22,15.34v17h-.41c-6.55-2.66-11.76,3-23.83,3-18.41,0-32-15.65-32-37s13.19-37,31.6-37c6,0,13.5,2.25,18.41,0h.41l4,25.57h-.92c-5.42-17-11.86-24.55-21.89-24.55C237.4,1.33,230.75,17.19,230.75,37.33Z"/><path class="cls-1" d="M23.1,95.57c3,0,6.3.82,9.25.82a10.25,10.25,0,0,0,4.22-.82h.25l2.52,18.26h-.63C33.61,102.31,28.07,96.2,23.1,96.2c-5.85,0-8,5.85-8,22.35S17.19,140.9,23,140.9c4.47,0,11.58-6.74,16.68-19.32h.63l-2.52,19.77h-.25a13.17,13.17,0,0,0-4.72-.76c-3.27,0-6.74.94-9.82.94-13.28,0-23-9.69-23-23S9.76,95.57,23.1,95.57Z"/><path class="cls-1" d="M66.4,140.2c3.15-1.95,1.83-7.55-1-15l-.5-1.39H51.73c-2.33,9.57,1.2,15.11,5.67,16.43v.38H40.28v-.38c4.22-1.57,7.43-7.55,11.46-19.39l5.6-16.56c-2-4.28-3.78-6.48-7.11-7.37V96.5H69.05l10.7,28.64c2.83,7.55,5.48,13.91,8.69,15v.38h-22v-.36ZM52,123H64.58L59.1,108.53c-.44-1.2-.88-2.2-1.26-3.21l-5.29,15.74C52.37,121.7,52.12,122.32,52,123Z"/><path class="cls-1" d="M104.23,140.2v.38H87.17v-.38c4.28-2.64,5.67-9,5.67-27.13v-2.45c0-3.84-.94-11.71-5.67-13.72v-.38h18l14.23,27.32,10.07-27.32H145.4v.38c-2.52.94-3.78,4.41-3.78,13.28v16.74c0,8.88,1.26,12.34,3.78,13.28v.38H123.87v-.38c2.52-.94,3.78-4.41,3.78-13.28V104.26l-13.79,37h-1l-19.26-36.7v8.56C93.6,131.2,97.75,137.37,104.23,140.2Z"/><path class="cls-1" d="M149.8,140.2c2.52-.94,3.78-4.41,3.78-13.28V110.18c0-8.88-1.26-12.34-3.78-13.28v-.38h21.4v.38c-2.52.94-3.78,4.41-3.78,13.28v16.74c0,8.88,1.26,12.34,3.78,13.28v.38H149.8Z"/><path class="cls-1" d="M175.61,140.2c2.52-.94,3.78-4.41,3.78-13.28V110.18c0-8.88-1.26-12.34-3.78-13.28v-.38H197v.38c-2.52.94-3.78,4.41-3.78,13.28v23.48c0,4.66,1.89,6.3,4.72,6.3h.38c4.72,0,10.57-7.49,16.3-20.27h.63l-3.46,21.65h-.25a94.54,94.54,0,0,0-13.91-.76h-22Z"/><path class="cls-1" d="M239.5,140.2c3.15-1.95,1.83-7.55-1-15l-.5-1.39H224.83c-2.33,9.57,1.2,15.11,5.67,16.43v.38H213.38v-.38c4.22-1.57,7.43-7.55,11.46-19.39l5.6-16.56c-1.95-4.28-3.78-6.48-7.11-7.37V96.5h18.82l10.7,28.64c2.83,7.55,5.48,13.91,8.69,15v.38h-22v-.36ZM225.08,123h12.59l-5.48-14.42c-.44-1.2-.88-2.2-1.26-3.21l-5.29,15.74C225.46,121.7,225.21,122.32,225.08,123Z"/><path class="cls-2" d="M269.14,119.24c0,12.4,4.34,22.16,14.16,22.16,6.17,0,10.89-3.08,10.89-9.63v-2c0-6-1.45-8.69-7.05-9.38v-.44h14.29v.38c-2.52.44-3.21,2-3.21,9.44v10.45H298c-4-1.64-7.24,1.82-14.67,1.82-11.33,0-19.7-9.63-19.7-22.79s8.12-22.79,19.45-22.79c3.71,0,8.31,1.39,11.33,0h.25l2.45,15.74h-.57c-3.34-10.45-7.3-15.11-13.47-15.11C273.23,97.08,269.14,106.84,269.14,119.24Z"/><path class="cls-2" d="M328.81,140.89c3.08-.31,4.15-2.83.63-12.46l-1.45-4H312.38l-.25.63c-4,11.39-2.64,15.23,1.95,15.8v.38H302.69v-.38c3.08-.38,5-5.85,8.56-15.86l8.18-23.1c-1.51-3.08-2.9-4.15-5.29-4.34v-.38h8.5l11.52,31.22c3.46,9.51,4.41,12.15,7,12.46v.38H328.81v-.38ZM319.93,103l-7.3,20.65h15L321.94,108C321.19,106,320.56,104.38,319.93,103Z"/><path class="cls-2" d="M344,140.89c2.52-.44,3.46-1.76,3.46-13.28V110.87c0-11.52-.94-12.84-3.46-13.28v-.38h11.39v.38c-2.52.44-3.46,1.76-3.46,13.28V133c0,6,2,7.62,5.73,7.62h2.08c7.93,0,11.2-5.79,15.3-17.19h.57l-4,18.57h-.25a82.15,82.15,0,0,0-13-.76H344.05v-.38Z"/><path class="cls-2" d="M379.22,140.89c2.52-.44,3.46-1.76,3.46-13.28V110.87c0-11.52-.94-12.84-3.46-13.28v-.38h11.39v.38c-2.52.44-3.46,1.76-3.46,13.28v16.74c0,11.52.94,12.84,3.46,13.28v.38H379.22Z"/><path class="cls-2" d="M423.66,141.27H395.08v-.38L423,101.36h-15.3c-7.68,0-10.07,4-12,10.83h-.57l2.71-15h28.89v.38l-27.89,39.53h14.6c7.74,0,10.58-3.46,13.16-11.46h.57Z"/><path class="cls-2" d="M453,140.89c3.08-.31,4.15-2.83.63-12.46l-1.45-4H436.56l-.25.63c-4,11.39-2.64,15.23,1.95,15.8v.38H426.87v-.38c3.08-.38,5-5.85,8.56-15.86l8.18-23.1c-1.51-3.08-2.9-4.15-5.29-4.34v-.38h8.5l11.52,31.22c3.46,9.51,4.41,12.15,7,12.46v.38H453ZM444.12,103l-7.3,20.65h15L446.13,108C445.38,106,444.75,104.38,444.12,103Z"/><path class="cls-1" d="M99,168.88a3,3,0,0,0,2.66-1.27V164c0-3.95-.36-4.6-1.46-5v-.1a11.19,11.19,0,0,0,3.12-.43V164c0,3.52.12,4.7,1.2,5.18v.1c-1.41,0-2.25.34-2.76,1.1h-.1v-2.44a3.89,3.89,0,0,1-3.5,2.32c-1.75,0-3.14-1-3.14-3.52V164c0-4-.26-4.58-1.2-5v-.1a12,12,0,0,0,2.85-.43v7.62C96.62,168.11,97.58,168.88,99,168.88Z"/><path class="cls-1" d="M117.74,169.84v.1h-4.1v-.1c1-.26,1.2-.6,1.2-5.18v-7.17c0-3-.22-3.86-1.2-4.34v-.1a3.3,3.3,0,0,0,2.76-1.39h.1v13C116.49,169.24,116.63,169.57,117.74,169.84Z"/><path class="cls-1" d="M133.8,168.4l0,.07a3.1,3.1,0,0,1-2.85,1.75,2.5,2.5,0,0,1-2.61-2.85l.12-5.13c.05-2.11-.29-2.64-2.73-2.68v-.19c2.4-.05,3.91-2.08,4.22-4.46h.17v3.79h3.74l-.36,1.17h-3.38v6.86c0,1.46.74,2.06,2,2.06A3.47,3.47,0,0,0,133.8,168.4Z"/><path class="cls-1" d="M147.27,169.84v.1h-4.7v-.1c1.05-.26,1.2-.6,1.2-5.15,0-3.4-.24-4.41-1.2-4.94v-.1a3.43,3.43,0,0,0,2.78-1.34h.1v2.92a4.15,4.15,0,0,1,3.33-2.8,1.65,1.65,0,0,1,1.65,1.87c0,.79-.36,1.41-1.1,1.41s-1.37-.82-1-2.18a3.46,3.46,0,0,0-2.9,2v3.12C145.44,169.24,145.64,169.45,147.27,169.84Z"/><path class="cls-1" d="M166.9,161.76l-.14,6.06c0,.82.36,1.2,1.05,1.2a1.89,1.89,0,0,0,.77-.19l0,.07a1.89,1.89,0,0,1-1.87,1.32,1.56,1.56,0,0,1-1.63-1.73v-.36a4.09,4.09,0,0,1-3.48,2.08c-1.58,0-2.49-.91-2.49-2.13s.72-1.89,3.36-3.14l2.61-1.22V162.5c0-2.64-1-3.93-3.76-3.33-.07,1.92-.46,3.14-1.39,3.14a.86.86,0,0,1-.91-.91c0-1.75,3.14-3,5.08-3C165.87,158.43,166.92,159.43,166.9,161.76ZM162.75,169a3.33,3.33,0,0,0,2.37-1.05v-4c-3.16,1.56-4,2.3-4,3.45A1.46,1.46,0,0,0,162.75,169Z"/><path class="cls-1" d="M183.27,167.78c0-3.09-5.73-2.45-5.73-6.21a3.35,3.35,0,0,1,3.64-3.14c1.2,0,2.09.58,2.73.58a.89.89,0,0,0,.91-.43H185l-1,4h-.14c-.07-2.68-1.22-3.91-2.66-3.91a2,2,0,0,0-2.18,2c0,3.14,5.73,2.47,5.73,6.23,0,2-1.53,3.33-3.72,3.33-1.29,0-2.21-.6-3-.6a1.33,1.33,0,0,0-1.15.55h-.14l1.39-4.39h.14C177.94,169,179.79,170,181,170A2.06,2.06,0,0,0,183.27,167.78Z"/><path class="cls-1" d="M200.09,167.78c0-3.09-5.73-2.45-5.73-6.21a3.35,3.35,0,0,1,3.64-3.14c1.2,0,2.09.58,2.73.58a.89.89,0,0,0,.91-.43h.14l-1,4h-.14c-.07-2.68-1.22-3.91-2.66-3.91a2,2,0,0,0-2.18,2c0,3.14,5.73,2.47,5.73,6.23,0,2-1.53,3.33-3.72,3.33-1.29,0-2.21-.6-3-.6a1.33,1.33,0,0,0-1.15.55h-.14l1.39-4.39h.14c-.29,3.24,1.56,4.19,2.78,4.19A2.06,2.06,0,0,0,200.09,167.78Z"/><path class="cls-1" d="M211,164.32c0-3.48,2.23-5.9,5.25-5.9s5.2,2.42,5.2,5.9-2.23,5.9-5.25,5.9S211,167.8,211,164.32Zm8.39,0c0-3.5-1.13-5.63-3.14-5.68s-3.19,2.09-3.19,5.68,1.13,5.68,3.14,5.68S219.34,167.87,219.34,164.32Z"/><path class="cls-1" d="M235,169.84v.1h-4.1v-.1c1.05-.26,1.2-.6,1.2-5.15,0-3.4-.24-4.41-1.2-4.94v-.1a3.43,3.43,0,0,0,2.78-1.34h.1v2.52a3.89,3.89,0,0,1,3.57-2.4c1.89,0,3.4,1.34,3.4,4.24v2c0,4.58.17,4.94,1.2,5.2v.1H237.9v-.1c1.08-.26,1.2-.62,1.2-5.49,0-3.62-.91-4.72-2.61-4.72a3.11,3.11,0,0,0-2.68,1.46v3.6C233.79,169.24,233.94,169.57,235,169.84Z"/><path class="cls-1" d="M251.07,164.32c0-3.48,2.23-5.9,5.25-5.9s5.2,2.42,5.2,5.9-2.23,5.9-5.25,5.9S251.07,167.8,251.07,164.32Zm8.39,0c0-3.5-1.13-5.63-3.14-5.68s-3.19,2.09-3.19,5.68,1.13,5.68,3.14,5.68S259.46,167.87,259.46,164.32Z"/><path class="cls-1" d="M273.87,165.14a3.33,3.33,0,0,1-2.23-3.14c0-2.06,1.85-3.57,4.29-3.57a5.62,5.62,0,0,1,1.7.26h.84c1.17,0,2.56-.26,2.95-.72h.05v.91h-3.33a3.43,3.43,0,0,1,2.18,3.12c0,2.13-1.92,3.52-4.39,3.52a5.24,5.24,0,0,1-1.85-.31,1.85,1.85,0,0,0-1.17,1.68c0,1.27.84,1.73,2.3,1.73,1.13,0,2.16-.22,3-.22,2,0,3.31.91,3.31,2.88,0,2.57-2.76,4-5.59,4-3.31,0-5.08-.89-5.08-2.8,0-1.25,1-2.13,2.64-2.44-1.2-.26-2.18-.91-2.18-2.28S272.29,165.64,273.87,165.14Zm2.16,9.92c2.42,0,4-1.22,4-3,0-1.41-1-1.89-2.56-1.89h-2.54a5.78,5.78,0,0,1-1.17-.1,2.46,2.46,0,0,0-1.13,2.21C272.62,174.1,273.94,175.06,276,175.06ZM278.3,162c0-2.23-.84-3.38-2.35-3.38s-2.33,1.15-2.33,3.38c0,2,.84,3.33,2.35,3.33S278.3,164,278.3,162Z"/><path class="cls-1" d="M295,169.84v.1h-4.7v-.1c1.05-.26,1.2-.6,1.2-5.15,0-3.4-.24-4.41-1.2-4.94v-.1a3.43,3.43,0,0,0,2.78-1.34h.1v2.92a4.15,4.15,0,0,1,3.33-2.8,1.65,1.65,0,0,1,1.65,1.87c0,.79-.36,1.41-1.1,1.41s-1.37-.82-1-2.18a3.46,3.46,0,0,0-2.9,2v3.12C293.19,169.24,293.38,169.45,295,169.84Z"/><path class="cls-1" d="M314.64,161.76l-.14,6.06c0,.82.36,1.2,1.05,1.2a1.89,1.89,0,0,0,.77-.19l.05.07a1.89,1.89,0,0,1-1.87,1.32,1.56,1.56,0,0,1-1.63-1.73v-.36a4.09,4.09,0,0,1-3.48,2.08c-1.58,0-2.49-.91-2.49-2.13s.72-1.89,3.36-3.14l2.61-1.22V162.5c0-2.64-1.05-3.93-3.76-3.33-.07,1.92-.46,3.14-1.39,3.14a.86.86,0,0,1-.91-.91c0-1.75,3.14-3,5.08-3C313.61,158.43,314.66,159.43,314.64,161.76ZM310.49,169a3.33,3.33,0,0,0,2.37-1.05v-4c-3.16,1.56-4,2.3-4,3.45A1.46,1.46,0,0,0,310.49,169Z"/><path class="cls-1" d="M329.91,169.84v.1h-4.7v-.1c1.08-.26,1.22-.6,1.22-5.15v-4.82h-1.87V158.7h1.87v-2.8c0-2.23,1.32-4.22,3.81-4.22,1.85,0,3.12.82,3.12,1.82a.84.84,0,0,1-.91.84c-.89,0-1.32-.79-1.63-2.52-1.82.19-2.73,1.75-2.73,4v2.9h3.5l-.34,1.17h-3.16v4.82C328.09,169.21,328.3,169.48,329.91,169.84Z"/><path class="cls-1" d="M343.74,169.84v.1h-4.1v-.1c1.05-.26,1.2-.6,1.2-5.15,0-3.4-.24-4.41-1.2-4.94v-.1a3.43,3.43,0,0,0,2.78-1.34h.1v6.38C342.51,169.24,342.66,169.57,343.74,169.84Zm-3.45-14c-.22-.6.17-1.22.93-1.51s1.49-.14,1.7.41-.19,1.25-1,1.51S340.45,156.27,340.29,155.81Z"/><path class="cls-1" d="M360.66,161.76l-.14,6.06c0,.82.36,1.2,1.05,1.2a1.89,1.89,0,0,0,.77-.19l.05.07a1.89,1.89,0,0,1-1.87,1.32,1.56,1.56,0,0,1-1.63-1.73v-.36a4.09,4.09,0,0,1-3.48,2.08c-1.58,0-2.49-.91-2.49-2.13s.72-1.89,3.36-3.14l2.61-1.22V162.5c0-2.64-1.05-3.93-3.76-3.33-.07,1.92-.46,3.14-1.39,3.14a.86.86,0,0,1-.91-.91c0-1.75,3.14-3,5.08-3C359.63,158.43,360.68,159.43,360.66,161.76ZM356.51,169a3.33,3.33,0,0,0,2.37-1.05v-4c-3.16,1.56-4,2.3-4,3.45A1.46,1.46,0,0,0,356.51,169Z"/></g></g></svg>