<svg xmlns="http://www.w3.org/2000/svg" viewBox="0 0 107.13 302.23"><defs><style>.cls-1{fill:#fff9f5;}.cls-2{fill:#d3b88d;}</style></defs><g id="Camada_2" data-name="Camada 2"><g id="Camada_1-2" data-name="Camada 1"><path class="cls-1" d="M31.52,239.53c4,0,8.59,1.12,12.63,1.12a13.89,13.89,0,0,0,5.75-1.12h.34l3.44,24.91h-.86c-7-15.72-14.52-24.05-21.3-24.05-8,0-10.91,8-10.91,30.49s2.83,30.49,10.74,30.49c6.1,0,15.8-9.19,22.76-26.37H55l-3.44,27h-.34a18.16,18.16,0,0,0-6.44-1c-4.47,0-9.19,1.29-13.4,1.29C13.23,302.23,0,289,0,270.88S13.31,239.53,31.52,239.53Z"/><path class="cls-2" d="M42.43,270.88c0,16.92,5.93,30.23,19.33,30.23,8.42,0,14.86-4.21,14.86-13.14v-2.75c0-8.16-2-11.85-9.62-12.8v-.6H86.5v.52c-3.44.6-4.38,2.75-4.38,12.88v14.26h-.34c-5.5-2.23-9.88,2.49-20,2.49-15.46,0-26.88-13.14-26.88-31.09S46,239.79,61.43,239.79c5.07,0,11.34,1.89,15.46,0h.34l3.35,21.47h-.77c-4.55-14.26-10-20.61-18.38-20.61C48,240.65,42.43,254,42.43,270.88Z"/><path class="cls-1" d="M4.3,200.21c0-2.48.69-5.29.69-7.77a8.57,8.57,0,0,0-.69-3.54v-.21l15.33-2.11v.53C10,191.39,4.83,196,4.83,200.22c0,4.92,4.91,6.71,18.77,6.71s18.77-1.74,18.77-6.61c0-3.75-5.66-9.73-16.23-14v-.53l16.6,2.11v.21a11,11,0,0,0-.63,4c0,2.75.79,5.66.79,8.25,0,11.15-8.14,19.29-19.29,19.29S4.3,211.42,4.3,200.21Z"/><path class="cls-1" d="M41.78,163.84c-1.64-2.64-6.34-1.53-12.63.85l-1.16.42v11c8,2,12.69-1,13.8-4.76h.32v14.38h-.32c-1.32-3.54-6.34-6.24-16.28-9.62l-13.9-4.7c-3.59,1.64-5.45,3.17-6.19,6H5.1V161.62l24-9c6.34-2.38,11.68-4.6,12.63-7.3h.32v18.5h-.32ZM27.29,176V165.38L15.18,170c-1,.37-1.85.74-2.69,1.06l13.21,4.44C26.23,175.63,26.76,175.84,27.29,176Z"/><path class="cls-1" d="M41.78,132.08h.32v14.33h-.32c-2.22-3.59-7.56-4.76-22.78-4.76H16.94c-3.22,0-9.83.79-11.52,4.76H5.1V131.29L28,119.34,5.1,110.88V97.51h.32c.79,2.11,3.7,3.17,11.15,3.17H30.62c7.45,0,10.36-1.06,11.15-3.17h.32v18.08h-.32c-.79-2.11-3.7-3.17-11.15-3.17h-19l31,11.57v.85L11.8,141H19C34.22,141,39.4,137.52,41.78,132.08Z"/><path class="cls-1" d="M41.78,93.81c-.79-2.11-3.7-3.17-11.15-3.17H16.57c-7.45,0-10.36,1.06-11.15,3.17H5.1v-18h.32C6.21,78,9.12,79,16.57,79H30.62C38.07,79,41,78,41.77,75.84h.32v18Z"/><path class="cls-1" d="M41.78,72.14C41,70,38.08,69,30.63,69H16.57C9.12,69,6.21,70,5.42,72.14H5.1v-18h.32c.79,2.11,3.7,3.17,11.15,3.17H36.29c3.91,0,5.29-1.59,5.29-4v-.32c0-4-6.29-8.88-17-13.69v-.53l18.18,2.91V42a79.29,79.29,0,0,0-.63,11.68v18.5Z"/><path class="cls-1" d="M41.78,18.49c-1.64-2.64-6.34-1.53-12.63.85L28,19.76v11c8,2,12.69-1,13.8-4.76h.32V40.43h-.32c-1.32-3.54-6.34-6.24-16.28-9.62l-13.9-4.7c-3.59,1.64-5.45,3.17-6.19,6H5.1V16.28l24-9C35.49,4.91,40.83,2.69,41.78,0h.32V18.5h-.32ZM27.29,30.59V20l-12.11,4.6c-1,.37-1.85.74-2.69,1.06L25.7,30.12C26.23,30.27,26.76,30.49,27.29,30.59Z"/><path class="cls-2" d="M68,213.85c10.41,0,18.61-3.65,18.61-11.89,0-5.18-2.59-9.15-8.09-9.15H76.82c-5,0-7.29,1.22-7.88,5.92h-.37v-12h.32c.37,2.11,1.69,2.7,7.93,2.7H85.6v.21c-1.37,3.38,1.53,6.08,1.53,12.32,0,9.52-8.09,16.54-19.14,16.54s-19.14-6.82-19.14-16.33c0-3.12,1.16-7,0-9.51v-.21l13.22-2.06v.48c-8.78,2.8-12.69,6.13-12.69,11.31C49.38,210.41,57.58,213.85,68,213.85Z"/><path class="cls-2" d="M86.17,163.74c-.26-2.59-2.38-3.49-10.47-.53l-3.33,1.22v13.11l.53.21c9.57,3.38,12.79,2.22,13.27-1.64h.32v9.57h-.32c-.32-2.59-4.92-4.18-13.32-7.19l-19.4-6.87c-2.59,1.27-3.49,2.43-3.65,4.44h-.32v-7.14l26.22-9.67c8-2.91,10.2-3.7,10.47-5.87h.32v10.36Zm-31.82,7.45,17.34,6.13V164.69L58.58,169.5C56.89,170.14,55.52,170.66,54.35,171.19Z"/><path class="cls-2" d="M86.17,151C85.8,148.84,84.69,148,75,148H61c-9.67,0-10.78.79-11.15,2.91h-.32v-9.57h.32c.37,2.11,1.48,2.91,11.15,2.91H79.57c5.07,0,6.4-1.69,6.4-4.81v-1.74c0-6.66-4.86-9.41-14.43-12.85v-.48l15.59,3.38V128a68.83,68.83,0,0,0-.63,10.94v12h-.33Z"/><path class="cls-2" d="M86.17,121.4c-.37-2.11-1.48-2.91-11.15-2.91H61c-9.67,0-10.78.79-11.15,2.91h-.32v-9.57h.32c.37,2.11,1.48,2.91,11.15,2.91H75c9.67,0,10.78-.79,11.15-2.91h.32v9.57Z"/><path class="cls-2" d="M86.49,84.08v24h-.32L53,84.66V97.5c0,6.45,3.33,8.46,9.09,10.1v.48l-12.58-2.27V81.55h.32L83,105V92.71c0-6.5-2.91-8.88-9.62-11v-.48Z"/><path class="cls-2" d="M86.17,59.45c-.26-2.59-2.38-3.49-10.47-.53l-3.33,1.22V73.25l.53.21c9.57,3.38,12.79,2.22,13.27-1.64h.32v9.57h-.32c-.32-2.59-4.92-4.18-13.32-7.19l-19.4-6.87C50.86,68.6,50,69.76,49.8,71.77h-.32V64.63L75.7,55c8-2.91,10.2-3.7,10.47-5.87h.32V59.45ZM54.35,66.9,71.69,73V60.4L58.58,65.21C56.89,65.85,55.52,66.38,54.35,66.9Z"/><path class="cls-1" d="M103,216.28a1.91,1.91,0,0,0-.82-1.71H99.87c-2.54,0-3,.23-3.19.94h-.06a7.05,7.05,0,0,0-.28-2h3.52c2.26,0,3-.08,3.33-.77h.06a1.89,1.89,0,0,0,.71,1.77v.06h-1.57a2.49,2.49,0,0,1,1.49,2.25c0,1.12-.68,2-2.26,2H99.88c-2.56,0-2.94.17-3.2.77h-.06a7.69,7.69,0,0,0-.28-1.83h4.9C102.54,217.78,103,217.16,103,216.28Z"/><path class="cls-1" d="M103.65,204.22h.06v2.63h-.06c-.17-.68-.39-.77-3.33-.77h-4.6c-1.92,0-2.48.14-2.79.77h-.06a2.11,2.11,0,0,0-.89-1.77V205h8.36C103.26,205,103.48,204.93,103.65,204.22Z"/><path class="cls-1" d="M102.73,193.91l0,0a2,2,0,0,1,1.12,1.83,1.61,1.61,0,0,1-1.83,1.68l-3.29-.08c-1.35,0-1.69.18-1.72,1.75h-.12a3,3,0,0,0-2.86-2.71v-.11h2.43v-2.4l.75.23v2.17h4.4c.94,0,1.32-.48,1.32-1.26A2.31,2.31,0,0,0,102.73,193.91Z"/><path class="cls-1" d="M103.65,185.25h.06v3h-.06c-.17-.68-.39-.77-3.31-.77-2.19,0-2.83.15-3.17.77h-.06a2.24,2.24,0,0,0-.86-1.79v-.06h1.88a2.66,2.66,0,0,1-1.8-2.14,1.06,1.06,0,0,1,1.2-1.06c.51,0,.91.23.91.71s-.52.88-1.4.63a2.2,2.2,0,0,0,1.31,1.86h2C103.26,186.42,103.4,186.3,103.65,185.25Z"/><path class="cls-1" d="M98.46,172.65l3.9.09c.52,0,.77-.23.77-.68a1.18,1.18,0,0,0-.12-.49l0,0a1.21,1.21,0,0,1,.85,1.2,1,1,0,0,1-1.11,1h-.23a2.63,2.63,0,0,1,1.34,2.23c0,1-.58,1.6-1.37,1.6s-1.22-.46-2-2.16l-.78-1.68H99c-1.69,0-2.52.68-2.14,2.42,1.23.05,2,.29,2,.89a.55.55,0,0,1-.58.58c-1.12,0-1.91-2-1.91-3.26S97,172.63,98.46,172.65Zm4.64,2.66a2.11,2.11,0,0,0-.68-1.52H99.88c1,2,1.48,2.59,2.22,2.59A1,1,0,0,0,103.1,175.31Z"/><path class="cls-1" d="M102.33,162.14c-2,0-1.57,3.68-4,3.68a2.15,2.15,0,0,1-2-2.34,14.68,14.68,0,0,1,.37-1.76.55.55,0,0,0-.28-.58v-.09l2.56.63v.09c-1.72,0-2.51.79-2.51,1.71a1.29,1.29,0,0,0,1.29,1.4c2,0,1.59-3.68,4-3.68a2.18,2.18,0,0,1,2.14,2.39c0,.83-.39,1.42-.39,1.94a.86.86,0,0,0,.35.74v.09l-2.82-.89v-.09c2.08.18,2.69-1,2.69-1.79A1.3,1.3,0,0,0,102.33,162.14Z"/><path class="cls-1" d="M102.33,151.33c-2,0-1.57,3.68-4,3.68a2.15,2.15,0,0,1-2-2.34,14.68,14.68,0,0,1,.37-1.76.55.55,0,0,0-.28-.58v-.09l2.56.63V151c-1.72,0-2.51.79-2.51,1.71a1.29,1.29,0,0,0,1.29,1.4c2,0,1.59-3.68,4-3.68a2.18,2.18,0,0,1,2.14,2.39c0,.83-.39,1.42-.39,1.94a.86.86,0,0,0,.35.74v.09l-2.82-.89v-.09c2.08.18,2.69-1,2.69-1.79A1.31,1.31,0,0,0,102.33,151.33Z"/><path class="cls-1" d="M100.11,144.36c-2.23,0-3.79-1.43-3.79-3.37s1.56-3.34,3.79-3.34,3.79,1.43,3.79,3.37S102.34,144.36,100.11,144.36Zm0-5.39c-2.25,0-3.62.72-3.65,2s1.34,2,3.65,2,3.65-.72,3.65-2S102.39,139,100.11,139Z"/><path class="cls-1" d="M103.65,131.61h.06v2.63h-.06c-.17-.68-.39-.77-3.31-.77-2.19,0-2.83.15-3.17.77h-.06a2.24,2.24,0,0,0-.86-1.79v-.06h1.62a2.49,2.49,0,0,1-1.54-2.29c0-1.22.86-2.19,2.73-2.19h1.26c2.94,0,3.17-.11,3.34-.77h.06v2.62h-.06c-.17-.69-.4-.77-3.53-.77-2.32,0-3,.59-3,1.68a2,2,0,0,0,.94,1.72h2.31C103.26,132.39,103.48,132.3,103.65,131.61Z"/><path class="cls-1" d="M100.11,121.29c-2.23,0-3.79-1.43-3.79-3.37s1.56-3.34,3.79-3.34S103.9,116,103.9,118,102.34,121.29,100.11,121.29Zm0-5.38c-2.25,0-3.62.72-3.65,2s1.34,2,3.65,2,3.65-.72,3.65-2S102.39,115.91,100.11,115.91Z"/><path class="cls-1" d="M100.63,106.66a2.13,2.13,0,0,1-2,1.43,2.49,2.49,0,0,1-2.29-2.76,3.37,3.37,0,0,1,.17-1.09v-.54a3.13,3.13,0,0,0-.46-1.89v0h.58v2.14a2.2,2.2,0,0,1,2-1.4c1.37,0,2.26,1.23,2.26,2.82a3.27,3.27,0,0,1-.2,1.19,1.19,1.19,0,0,0,1.08.75c.82,0,1.11-.54,1.11-1.48,0-.72-.14-1.39-.14-2,0-1.28.58-2.12,1.85-2.12,1.65,0,2.56,1.77,2.56,3.59,0,2.12-.57,3.26-1.8,3.26-.8,0-1.37-.65-1.57-1.69-.17.77-.58,1.4-1.46,1.4S101,107.67,100.63,106.66Zm6.38-1.39c0-1.56-.79-2.57-2-2.57-.91,0-1.22.68-1.22,1.65V106a4.65,4.65,0,0,1-.06.75,1.58,1.58,0,0,0,1.42.72C106.39,107.46,107,106.61,107,105.27Zm-8.39-1.46c-1.43,0-2.17.54-2.17,1.51s.74,1.49,2.17,1.49,2.14-.54,2.14-1.51S99.92,103.81,98.62,103.81Z"/><path class="cls-1" d="M103.65,93.08h.06v3h-.06c-.17-.68-.39-.77-3.31-.77-2.19,0-2.83.15-3.17.77h-.06a2.24,2.24,0,0,0-.86-1.79v-.06h1.88a2.66,2.66,0,0,1-1.8-2.14,1.06,1.06,0,0,1,1.2-1.06c.51,0,.91.23.91.71s-.52.88-1.4.63a2.2,2.2,0,0,0,1.31,1.86h2C103.26,94.25,103.4,94.13,103.65,93.08Z"/><path class="cls-1" d="M98.46,80.47l3.9.09c.52,0,.77-.23.77-.68a1.18,1.18,0,0,0-.12-.49l0,0a1.21,1.21,0,0,1,.85,1.2,1,1,0,0,1-1.11,1h-.23a2.63,2.63,0,0,1,1.34,2.23c0,1-.58,1.6-1.37,1.6s-1.22-.46-2-2.16l-.78-1.68H99c-1.69,0-2.52.68-2.14,2.42,1.23,0,2,.29,2,.89a.55.55,0,0,1-.58.58c-1.12,0-1.91-2-1.91-3.26S97,80.46,98.46,80.47Zm4.64,2.67a2.11,2.11,0,0,0-.68-1.52H99.88c1,2,1.48,2.59,2.22,2.59A1,1,0,0,0,103.1,83.14Z"/><path class="cls-1" d="M103.65,70.67h.06v3h-.06c-.17-.69-.39-.78-3.31-.78H97.25v1.2H96.5v-1.2H94.7A2.48,2.48,0,0,1,92,70.46c0-1.19.52-2,1.17-2a.54.54,0,0,1,.54.58c0,.57-.51.85-1.62,1,.12,1.17,1.12,1.75,2.56,1.75H96.5V69.59l.75.22v2h3.09C103.25,71.84,103.42,71.7,103.65,70.67Z"/><path class="cls-1" d="M103.65,61.79h.06v2.63h-.06c-.17-.68-.39-.77-3.31-.77-2.19,0-2.83.15-3.17.77h-.06a2.24,2.24,0,0,0-.86-1.79v-.06h4.1C103.26,62.57,103.48,62.48,103.65,61.79Zm-9,2.22c-.38.14-.78-.11-1-.6s-.09-.95.26-1.09.8.12,1,.65S94.94,63.9,94.64,64Z"/><path class="cls-1" d="M98.46,50.92l3.9.09c.52,0,.77-.23.77-.68a1.14,1.14,0,0,0-.12-.49l0,0a1.21,1.21,0,0,1,.85,1.2,1,1,0,0,1-1.11,1.05h-.23a2.63,2.63,0,0,1,1.34,2.23c0,1-.58,1.6-1.37,1.6s-1.22-.46-2-2.16l-.78-1.68H99c-1.69,0-2.52.68-2.14,2.42,1.23.05,2,.29,2,.89a.55.55,0,0,1-.58.58c-1.12,0-1.91-2-1.91-3.26S97,50.91,98.46,50.92Zm4.64,2.67a2.11,2.11,0,0,0-.68-1.52H99.88c1,2,1.48,2.59,2.22,2.59A1,1,0,0,0,103.1,53.59Z"/></g></g></svg>