<svg xmlns="http://www.w3.org/2000/svg" viewBox="0 0 420.49 105.91"><defs><style>.cls-1{fill:#fff9f5;}.cls-2{fill:#d3b88d;}</style></defs><g id="Camada_2" data-name="Camada 2"><g id="Camada_1-2" data-name="Camada 1"><path class="cls-1" d="M51.81,0c6.64,0,14.12,1.84,20.75,1.84A22.92,22.92,0,0,0,82,0h.56l5.65,40.94H86.82C75.38,15.1,63,1.41,51.81,1.41c-13.13,0-17.93,13.13-17.93,50.12s4.66,50.12,17.65,50.12c10,0,26-15.11,37.42-43.35h1.41l-5.65,44.33h-.56a29.77,29.77,0,0,0-10.59-1.69c-7.34,0-15.11,2.12-22,2.12C21.74,103.06,0,81.32,0,51.53S21.88,0,51.81,0Z"/><path class="cls-2" d="M69.74,51.53c0,27.81,9.74,49.7,31.77,49.7,13.84,0,24.43-6.92,24.43-21.6V75.11c0-13.41-3.25-19.48-15.81-21v-1h32.05v.85c-5.65,1-7.2,4.52-7.2,21.18V98.55h-.56c-9-3.67-16.24,4.09-32.9,4.09-25.41,0-44.19-21.6-44.19-51.11S75.54.42,101,.42c8.33,0,18.64,3.11,25.41,0h.56l5.51,35.3h-1.27C123.69,12.28,114.79,1.83,101,1.83,78.91,1.83,69.74,23.72,69.74,51.53Z"/><path class="cls-1" d="M171.86,3.05c3.09,0,6.56.85,9.65.85a10.73,10.73,0,0,0,4.4-.85h.26l2.63,19h-.66c-5.32-12-11.09-18.38-16.28-18.38-6.1,0-8.34,6.1-8.34,23.3s2.17,23.3,8.21,23.3c4.66,0,12.08-7,17.4-20.15h.66l-2.63,20.61h-.26A13.87,13.87,0,0,0,182,50c-3.41,0-7,1-10.24,1-13.85,0-24-10.11-24-24S157.94,3.05,171.86,3.05Z"/><path class="cls-1" d="M217,49.59c3.28-2,1.9-7.88-1-15.69l-.53-1.44H201.71c-2.43,10,1.25,15.75,5.91,17.13V50H189.76v-.39c4.4-1.64,7.75-7.88,12-20.22l5.84-17.26c-2-4.46-3.94-6.76-7.42-7.68V4h19.63l11.16,29.87c3,7.88,5.71,14.51,9.06,15.69V50H217v-.4Zm-15-18h13.13l-5.71-15c-.46-1.25-.92-2.3-1.31-3.35l-5.51,16.41C202.38,30.29,202.11,30.94,202,31.6Z"/><path class="cls-1" d="M256.46,49.59V50H238.67v-.39c4.46-2.76,5.91-9.39,5.91-28.29V18.74c0-4-1-12.21-5.91-14.31V4h18.77l14.84,28.49L282.78,4h16.61v.39c-2.63,1-3.94,4.6-3.94,13.85V35.74c0,9.26,1.31,12.87,3.94,13.85V50H276.94v-.39c2.63-1,3.94-4.59,3.94-13.85V12.11L266.5,50.64h-1.05L245.36,12.37V21.3C245.37,40.2,249.7,46.63,256.46,49.59Z"/><path class="cls-1" d="M304,49.59c2.63-1,3.94-4.59,3.94-13.85V18.28c0-9.26-1.31-12.87-3.94-13.85V4H326.3v.39c-2.63,1-3.94,4.6-3.94,13.85V35.74c0,9.26,1.31,12.87,3.94,13.85V50H304Z"/><path class="cls-1" d="M330.9,49.59c2.63-1,3.94-4.59,3.94-13.85V18.28c0-9.26-1.31-12.87-3.94-13.85V4h22.32v.39c-2.63,1-3.94,4.6-3.94,13.85V42.77c0,4.86,2,6.56,4.92,6.56h.39c4.92,0,11-7.81,17-21.14h.66l-3.61,22.58h-.26A98.48,98.48,0,0,0,353.87,50h-23Z"/><path class="cls-1" d="M397.52,49.59c3.28-2,1.9-7.88-1-15.69l-.53-1.44H382.22c-2.43,10,1.25,15.75,5.91,17.13V50H370.27v-.39c4.4-1.64,7.75-7.88,12-20.22l5.84-17.26c-2-4.46-3.94-6.76-7.42-7.68V4h19.63l11.16,29.87c2.95,7.88,5.71,14.51,9.06,15.69V50h-23v-.4Zm-15-18h13.13l-5.71-15c-.46-1.25-.92-2.3-1.31-3.35l-5.51,16.41A18.48,18.48,0,0,0,382.49,31.6Z"/><path class="cls-2" d="M154.92,82.14c0,12.93,4.53,23.11,14.77,23.11,6.43,0,11.36-3.22,11.36-10v-2.1c0-6.24-1.51-9.06-7.35-9.78v-.46h14.9v.39c-2.63.46-3.35,2.1-3.35,9.85V104H185c-4.2-1.71-7.55,1.9-15.3,1.9-11.82,0-20.55-10-20.55-23.76s8.47-23.76,20.28-23.76c3.87,0,8.66,1.44,11.82,0h.26l2.56,16.41h-.59c-3.48-10.9-7.61-15.75-14.05-15.75C159.18,59,154.92,69.21,154.92,82.14Z"/><path class="cls-2" d="M217.14,104.72c3.22-.33,4.33-3,.66-13l-1.51-4.14H200l-.26.66c-4.2,11.88-2.76,15.89,2,16.48v.39H189.9v-.39c3.22-.39,5.19-6.1,8.93-16.54l8.53-24.09c-1.58-3.22-3-4.33-5.51-4.53v-.39h8.86l12,32.56c3.61,9.91,4.59,12.67,7.29,13v.39H217.14Zm-9.25-39.51-7.61,21.53H216l-6-16.28C209.2,68.36,208.55,66.65,207.89,65.21Z"/><path class="cls-2" d="M233,104.72c2.63-.46,3.61-1.84,3.61-13.85V73.41c0-12-1-13.39-3.61-13.85v-.39h11.88v.39c-2.63.46-3.61,1.84-3.61,13.85V96.52c0,6.3,2.1,7.94,6,7.94h2.17c8.27,0,11.68-6,15.95-17.92H266l-4.2,19.36h-.26a85.59,85.59,0,0,0-13.59-.79H233v-.39Z"/><path class="cls-2" d="M269.72,104.72c2.63-.46,3.61-1.84,3.61-13.85V73.41c0-12-1-13.39-3.61-13.85v-.39H281.6v.39C279,60,278,61.4,278,73.41V90.87c0,12,1,13.39,3.61,13.85v.39H269.72Z"/><path class="cls-2" d="M316.06,105.12h-29.8v-.39l29.08-41.22H299.39c-8,0-10.5,4.14-12.54,11.29h-.59l2.82-15.62h30.13v.39l-29.08,41.22h15.23c8.07,0,11-3.61,13.72-12h.59Z"/><path class="cls-2" d="M346.65,104.72c3.22-.33,4.33-3,.66-13l-1.51-4.14H329.52l-.26.66c-4.2,11.88-2.76,15.89,2,16.48v.39H319.41v-.39c3.22-.39,5.19-6.1,8.93-16.54l8.53-24.09c-1.58-3.22-3-4.33-5.51-4.53v-.39h8.86l12,32.56c3.61,9.91,4.59,12.67,7.29,13v.39H346.65v-.4Zm-9.26-39.51-7.61,21.53h15.69l-6-16.28C338.71,68.36,338.05,66.65,337.39,65.21Z"/></g></g></svg>